<svg xmlns="http://www.w3.org/2000/svg" xmlns:xlink="http://www.w3.org/1999/xlink" xmlns:lucid="lucid" width="1450.72" height="850.34"><g transform="translate(-676.8740623237308 25.56874398560001)" lucid:page-tab-id="0_0"><path d="M500-500h2000v1500H500z" fill="#fafafa"/><path d="M1332.83.43a6 6 0 0 1 6-6h108a6 6 0 0 1 6 6v18.6a6 6 0 0 1-6 6h-108a6 6 0 0 1-6-6z" stroke="#3a414a" fill-opacity="0"/><use xlink:href="#a" transform="matrix(1,0,0,1,1340.8267138894205,2.4312560143999917) translate(-3.8333333333333357 17.944444444444443)"/><path d="M746.87 461.4a6 6 0 0 1 6-6h132.57a6 6 0 0 1 6 6v28a6 6 0 0 1-6 6H752.87a6 6 0 0 1-6-6z" stroke="#3a414a" fill-opacity="0"/><use xlink:href="#b" transform="matrix(1,0,0,1,754.8740623237308,463.4027749468169) translate(3.3580246913580325 17.944444444444443)"/><path d="M726.87 195.62a6 6 0 0 1 6-6h172.57a6 6 0 0 1 6 6v28a6 6 0 0 1-6 6H732.87a6 6 0 0 1-6-6z" stroke="#3a414a" fill-opacity="0"/><use xlink:href="#c" transform="matrix(1,0,0,1,734.8740623237308,197.62042023015192) translate(-5.808641975308618 17.944444444444443)"/><path d="M746.87 533.86a6 6 0 0 1 6-6h132.57a6 6 0 0 1 6 6v28a6 6 0 0 1-6 6H752.87a6 6 0 0 1-6-6z" stroke="#3a414a" fill-opacity="0"/><use xlink:href="#d" transform="matrix(1,0,0,1,754.8740623237308,535.8581460270456) translate(9.592592592592602 17.944444444444443)"/><path d="M746.87 386.14a6 6 0 0 1 6-6h132.57a6 6 0 0 1 6 6v28a6 6 0 0 1-6 6H752.87a6 6 0 0 1-6-6z" stroke="#3a414a" fill-opacity="0"/><use xlink:href="#e" transform="matrix(1,0,0,1,754.8740623237308,388.1419900412619) translate(32.27777777777778 17.944444444444443)"/><path d="M1963.03 506.8a6 6 0 0 1 6-6h132.56a6 6 0 0 1 6 6v28a6 6 0 0 1-6 6h-132.57a6 6 0 0 1-6-6z" stroke="#3a414a" fill-opacity="0"/><use xlink:href="#f" transform="matrix(1,0,0,1,1971.0262012896028,508.7859808061788) translate(12.802469135802468 17.944444444444443)"/><path d="M717.54 55.67a6 6 0 0 1 6-6h191.23a6 6 0 0 1 6 6v28a6 6 0 0 1-6 6H723.54a6 6 0 0 1-6-6z" stroke="#3a414a" fill-opacity="0"/><use xlink:href="#g" transform="matrix(1,0,0,1,725.5407289903976,57.66984102388335) translate(3.5679012345679126 17.944444444444443)"/><path d="M696.87 312.28a6 6 0 0 1 6-6h232.57a6 6 0 0 1 6 6v28a6 6 0 0 1-6 6H702.87a6 6 0 0 1-6-6z" stroke="#3a414a" fill-opacity="0"/><use xlink:href="#h" transform="matrix(1,0,0,1,704.8740623237308,314.2839120483701) translate(0.6111111111111427 17.944444444444443)"/><path d="M1628.03 506.8a6 6 0 0 1 6-6h108a6 6 0 0 1 6 6v28a6 6 0 0 1-6 6h-108a6 6 0 0 1-6-6z" stroke="#3a414a" fill-opacity="0"/><use xlink:href="#i" transform="matrix(1,0,0,1,1636.0301299780444,508.7859808061788) translate(15.858024691358025 17.944444444444443)"/><path d="M1561.22 573.86a6 6 0 0 1 6-6h228a6 6 0 0 1 6 6v28a6 6 0 0 1-6 6h-228a6 6 0 0 1-6-6z" stroke="#3a414a" fill-opacity="0"/><use xlink:href="#j" transform="matrix(1,0,0,1,1569.2155973719805,575.8581460270456) translate(-1.17901234567897 17.944444444444443)"/><path d="M1621.22 284.93a6 6 0 0 1 6-6h108a6 6 0 0 1 6 6v28a6 6 0 0 1-6 6h-108a6 6 0 0 1-6-6z" stroke="#3a414a" fill-opacity="0"/><use xlink:href="#k" transform="matrix(1,0,0,1,1629.2155973719805,286.9313953861101) translate(2.70987654320988 17.944444444444443)"/><path d="M1621.22 373.1a6 6 0 0 1 6-6h108a6 6 0 0 1 6 6v28a6 6 0 0 1-6 6h-108a6 6 0 0 1-6-6z" stroke="#3a414a" fill-opacity="0"/><use xlink:href="#l" transform="matrix(1,0,0,1,1629.2155973719805,375.09007576951404) translate(-7.783950617283949 17.944444444444443)"/><path d="M1515.22 183.62h6v6h-6z" fill="url(#m)"/><path d="M1521.22 183.62h320v456.8h-320z" fill="url(#n)"/><path d="M1841.22 183.62h6v6h-6z" fill="url(#o)"/><path d="M1515.22 189.62h332v444.8h-332z" fill="url(#p)"/><path d="M1841.22 634.4h6v6h-6z" fill="url(#q)"/><path d="M1521.22 183.62h320v456.8h-320z" fill="url(#r)"/><path d="M1515.22 634.4h6v6h-6z" fill="url(#s)"/><path d="M1515.22 189.62h332v444.8h-332z" fill="url(#t)"/><path d="M1521.22 189.62h320v444.8h-320z" stroke="#6f7681" fill="#fff" fill-opacity="0"/><path d="M1530.55 183.1l.1-9.68c-1.03 3.38-2.4 6.45-3.57 9.7h-1.02l-3.6-9.7.04 9.7h-1.28v-11.03h1.95l3.42 9.37c.93-3.34 2.26-6.23 3.37-9.38h1.9v11h-1.32m8.84-11.15c3.6 0 5.46 2.05 5.46 5.6 0 3.5-1.96 5.74-5.47 5.74-3.6 0-5.47-2.2-5.47-5.75s1.86-5.6 5.46-5.6zm0 10.1c2.8 0 3.95-1.83 3.95-4.5 0-2.66-1.3-4.4-3.96-4.4-2.72 0-3.96 1.74-3.96 4.4 0 2.67 1.24 4.45 3.95 4.5m12.3 1.06h-1.5l-4.5-11h1.56l3.7 9.68 3.68-9.7h1.6m1.5 11.03v-11h1.52v11h-1.5m13.63 0l.08-9.68c-1.02 3.38-2.4 6.45-3.55 9.7h-1.03l-3.6-9.7.05 9.7h-1.3v-11.03h1.97l3.42 9.37c.93-3.34 2.26-6.23 3.38-9.38h1.9v11h-1.33m4.08 0v-11h1.5v11h-1.5m4.3 0v-11h8.32v1.23h-6.84v3.5h6.4v1.2h-6.4v3.88h7.2v1.2h-8.67m17.77 0l-5.87-9.37.05 9.38h-1.3v-11h1.74l5.9 9.45-.08-9.46h1.37v11h-1.83m8.7-9.77v9.78h-1.5v-9.77H1601v-1.24h9.06v1.23h-3.78m10-1.38c3.6 0 5.47 2.05 5.47 5.6 0 3.5-1.96 5.74-5.47 5.74-3.6 0-5.46-2.2-5.46-5.75s1.86-5.6 5.46-5.6zm0 10.1c2.8 0 3.96-1.83 3.96-4.5 0-2.66-1.3-4.4-3.96-4.4-2.7 0-3.95 1.74-3.95 4.4 0 2.67 1.24 4.45 3.95 4.5" fill="#282c33"/><path d="M1078.64 153.28h6v6h-6z" fill="url(#u)"/><path d="M1084.64 153.28h211.53v635.08h-211.53z" fill="url(#v)"/><path d="M1296.17 153.28h6v6h-6z" fill="url(#w)"/><path d="M1078.64 159.28h223.53v623.08h-223.53z" fill="url(#x)"/><path d="M1296.17 782.36h6v6h-6z" fill="url(#y)"/><path d="M1084.64 153.28h211.53v635.08h-211.53z" fill="url(#z)"/><path d="M1078.64 782.36h6v6h-6z" fill="url(#A)"/><path d="M1078.64 159.28h223.53v623.08h-223.53z" fill="url(#B)"/><path d="M1084.64 159.28h211.53v623.08h-211.53z" stroke="#6f7681" fill="#fff" fill-opacity="0"/><path d="M1092.15 144.4c-.22-2.14-5.46-2.4-5.5.08.6 3.33 7 .62 7.24 5.3.12 3.45-5.4 3.85-7.8 2.43-.75-.43-1.24-1.14-1.46-2.03l1.47-.3c.23 2.47 6.28 2.8 6.28-.06 0-3.46-6.9-.6-7.2-5.23-.23-3.65 6.44-3.74 7.95-1.5.22.3.36.7.5 1.1m11.28 4.5c-.04 2.88-1.77 4.3-4.6 4.3-2.72 0-4.46-1.43-4.46-4.18v-7.03h1.47c.36 3.95-1.46 9.95 3 9.95 4.52 0 2.83-5.9 3.14-9.95h1.47v6.9m8-6.9c-.35 4.44 1.56 11.2-3.24 11.2-1.95-.05-2.97-1.1-3.3-2.94l1.44-.22c.17 1.12.7 1.88 1.9 1.92 1.2 0 1.74-.9 1.74-2.18V143h-2.13v-1.23h3.6m2.54 11.02v-11.03h8.3V143h-6.83v3.52h6.4v1.2h-6.4v3.87h7.2v1.2h-8.66m14.98-9.8v9.8h-1.5V143h-3.8v-1.23h9.08V143h-3.78m10-1.37c3.6 0 5.47 2.05 5.47 5.6 0 3.52-1.97 5.74-5.48 5.74-3.6 0-5.47-2.18-5.47-5.74 0-3.55 1.87-5.6 5.47-5.6zm0 10.1c2.8 0 3.95-1.83 3.95-4.5 0-2.66-1.28-4.4-3.95-4.4-2.7 0-3.96 1.74-3.96 4.4 0 2.67 1.25 4.45 3.96 4.5" fill="#282c33"/><path d="M1136.93 195.62a6 6 0 0 1 6-6h108a6 6 0 0 1 6 6v28a6 6 0 0 1-6 6h-108a6 6 0 0 1-6-6z" stroke="#3a414a" fill-opacity="0"/><use xlink:href="#C" transform="matrix(1,0,0,1,1144.9255025940195,197.62042023015192) translate(13.790123456790127 17.944444444444443)"/><path d="M1136.93 607.47a6 6 0 0 1 6-6h108a6 6 0 0 1 6 6v28a6 6 0 0 1-6 6h-108a6 6 0 0 1-6-6z" stroke="#3a414a" fill-opacity="0"/><use xlink:href="#D" transform="matrix(1,0,0,1,1144.9255025940195,609.470022356383) translate(5.179012345679013 17.944444444444443)"/><path d="M1124.64 704.2a6 6 0 0 1 6-6h132.57a6 6 0 0 1 6 6v28a6 6 0 0 1-6 6h-132.56a6 6 0 0 1-6-6z" stroke="#3a414a" fill-opacity="0"/><use xlink:href="#E" transform="matrix(1,0,0,1,1132.6420380270902,706.1958443572693) translate(-6.395061728395049 17.944444444444443)"/><path d="M1124.64 386.14a6 6 0 0 1 6-6h132.57a6 6 0 0 1 6 6v28a6 6 0 0 1-6 6h-132.56a6 6 0 0 1-6-6z" stroke="#3a414a" fill-opacity="0"/><use xlink:href="#F" transform="matrix(1,0,0,1,1132.6420380270902,388.1419900412619) translate(2.8333333333333357 17.944444444444443)"/><path d="M1270.7 387.1h349.02" stroke="#5e5e5e" stroke-width="2" fill="none"/><path d="M1270.73 388.1h-1.02v-2.01h1.03zM1620.72 388.1h-1.03v-2h1.02z" stroke="#5e5e5e" stroke-width=".05" fill="#5e5e5e"/><path d="M1270.7 400.14h110.22a6 6 0 0 1 6 6v53.75a6 6 0 0 0 6 6h289.1a6 6 0 0 1 6 6v27.4" stroke="#5e5e5e" stroke-width="2" fill="none"/><path d="M1270.73 401.14h-1.02v-2h1.03zM1689.03 500.3h-2v-1.04h2z" stroke="#5e5e5e" stroke-width=".05" fill="#5e5e5e"/><path d="M1258.42 209.62h264.5" stroke="#5e5e5e" stroke-width="2" fill="none"/><path d="M1258.45 210.62h-1.03v-2h1.03z" stroke="#5e5e5e" stroke-width=".05" fill="#5e5e5e"/><path d="M1522.9 209.62h1.03M1258.42 621.47h106.14a6 6 0 0 0 6-6V526.8a6 6 0 0 1 6-6h249.97" stroke="#5e5e5e" stroke-width="2" fill="none"/><path d="M1258.45 622.47h-1.03v-2h1.03zM1627.53 521.8h-1.02v-2h1.03z" stroke="#5e5e5e" stroke-width=".05" fill="#5e5e5e"/><path d="M1392.83 26.53v74.8a6 6 0 0 0 6 6h321.8a6 6 0 0 1 6 6v74.8" stroke="#5e5e5e" stroke-width="2" fill="none"/><path d="M1393.83 26.56h-2v-1.03h2zM1727.62 189.12h-2v-1.03h2z" stroke="#5e5e5e" stroke-width=".05" fill="#5e5e5e"/><path d="M1270.7 718.2h138.5a6 6 0 0 0 6-6V593.86a6 6 0 0 1 6-6h138.52" stroke="#5e5e5e" stroke-width="2" fill="none"/><path d="M1270.73 719.2h-1.02v-2h1.03zM1560.72 588.86h-1.03v-2h1.02z" stroke="#5e5e5e" stroke-width=".05" fill="#5e5e5e"/><path d="M892.94 400.14h230.2" stroke="#5e5e5e" stroke-width="2" fill="none"/><path d="M892.97 401.14h-1.03v-2h1.03zM1124.14 401.14h-1.02v-2h1.02z" stroke="#5e5e5e" stroke-width=".05" fill="#5e5e5e"/><path d="M892.94 475.4h258.4a6 6 0 0 0 6-6v-47.76" stroke="#5e5e5e" stroke-width="2" fill="none"/><path d="M892.97 476.4h-1.03v-2h1.03zM1158.33 421.67h-2v-1.03h2z" stroke="#5e5e5e" stroke-width=".05" fill="#5e5e5e"/><path d="M942.94 326.28h205.14a6 6 0 0 1 6 6v46.36" stroke="#5e5e5e" stroke-width="2" fill="none"/><path d="M942.97 327.28h-1.03v-2h1.03zM1155.08 379.64h-2v-1.02h2z" stroke="#5e5e5e" stroke-width=".05" fill="#5e5e5e"/><path d="M892.94 547.86h298a6 6 0 0 0 6-6V421.64" stroke="#5e5e5e" stroke-width="2" fill="none"/><path d="M892.97 548.86h-1.03v-2h1.03zM1197.93 421.67h-2v-1.03h2z" stroke="#5e5e5e" stroke-width=".05" fill="#5e5e5e"/><path d="M819.16 231.12v43.14a6 6 0 0 0 6 6h365.77a6 6 0 0 1 6 6v92.38" stroke="#5e5e5e" stroke-width="2" fill="none"/><path d="M820.16 231.15h-2v-1.03h2zM1197.93 379.64h-2v-1.02h2z" stroke="#5e5e5e" stroke-width=".05" fill="#5e5e5e"/><path d="M1135.43 209.62h-222.5" stroke="#5e5e5e" stroke-width="2" fill="none"/><path d="M1136.43 210.62h-1.03v-2h1.03zM912.97 210.62h-1.03v-2h1.03z" stroke="#5e5e5e" stroke-width=".05" fill="#5e5e5e"/><path d="M1392.83 26.53v74.8a6 6 0 0 1-6 6h-183.2a6 6 0 0 0-6 6v74.8" stroke="#5e5e5e" stroke-width="2" fill="none"/><path d="M1393.83 26.56h-2v-1.03h2zM1198.64 189.12h-2v-1.03h2z" stroke="#5e5e5e" stroke-width=".05" fill="#5e5e5e"/><path d="M1749.53 520.8h212" stroke="#5e5e5e" stroke-width="2" fill="none"/><path d="M1749.56 521.8h-1.03v-2h1.03zM1962.53 521.8h-1.03v-2h1.03z" stroke="#5e5e5e" stroke-width=".05" fill="#5e5e5e"/><path d="M922.27 69.67h101.13a6 6 0 0 1 6 6V186a6 6 0 0 0 6 6h101.13" stroke="#5e5e5e" stroke-width="2" fill="none"/><path d="M922.3 70.67h-1.03v-2h1.03zM1138.33 191.02l-.66.78-.54.87-.14.34h-.5v-2h1.84z" stroke="#5e5e5e" stroke-width=".05" fill="#5e5e5e"/><path d="M1226.12 378.64V231.12" stroke="#5e5e5e" stroke-width="2" fill="none"/><path d="M1227.12 379.64h-2v-1.02h2zM1227.12 231.15h-2v-1.03h2z" stroke="#5e5e5e" stroke-width=".05" fill="#5e5e5e"/><defs><path fill="#3a414a" d="M205 0l-28-72H64L36 0H1l101-248h38L239 0h-34zm-38-99l-47-123c-12 45-31 82-46 123h93" id="G"/><path fill="#3a414a" d="M233-177c-1 41-23 64-60 70L243 0h-38l-65-103H63V0H30v-248c88 3 205-21 203 71zM63-129c60-2 137 13 137-47 0-61-80-42-137-45v92" id="H"/><path fill="#3a414a" d="M127-220V0H93v-220H8v-28h204v28h-85" id="I"/><path fill="#3a414a" d="M33 0v-248h34V0H33" id="J"/><path fill="#3a414a" d="M212-179c-10-28-35-45-73-45-59 0-87 40-87 99 0 60 29 101 89 101 43 0 62-24 78-52l27 14C228-24 195 4 139 4 59 4 22-46 18-125c-6-104 99-153 187-111 19 9 31 26 39 46" id="K"/><path fill="#3a414a" d="M232-93c-1 65-40 97-104 97C67 4 28-28 28-90v-158h33c8 89-33 224 67 224 102 0 64-133 71-224h33v155" id="L"/><path fill="#3a414a" d="M30 0v-248h33v221h125V0H30" id="M"/><path fill="#3a414a" d="M140-251c81 0 123 46 123 126C263-46 219 4 140 4 59 4 17-45 17-125s42-126 123-126zm0 227c63 0 89-41 89-101s-29-99-89-99c-61 0-89 39-89 99S79-25 140-24" id="N"/><g id="a"><use transform="matrix(0.06172839506172839,0,0,0.06172839506172839,0,0)" xlink:href="#G"/><use transform="matrix(0.06172839506172839,0,0,0.06172839506172839,14.814814814814813,0)" xlink:href="#H"/><use transform="matrix(0.06172839506172839,0,0,0.06172839506172839,30.370370370370367,0)" xlink:href="#I"/><use transform="matrix(0.06172839506172839,0,0,0.06172839506172839,43.888888888888886,0)" xlink:href="#J"/><use transform="matrix(0.06172839506172839,0,0,0.06172839506172839,50.06172839506173,0)" xlink:href="#K"/><use transform="matrix(0.06172839506172839,0,0,0.06172839506172839,66.04938271604938,0)" xlink:href="#L"/><use transform="matrix(0.06172839506172839,0,0,0.06172839506172839,82.03703703703704,0)" xlink:href="#M"/><use transform="matrix(0.06172839506172839,0,0,0.06172839506172839,94.38271604938272,0)" xlink:href="#N"/></g><path fill="#3a414a" d="M190 0L58-211 59 0H30v-248h39L202-35l-2-213h31V0h-41" id="O"/><g id="b"><use transform="matrix(0.06172839506172839,0,0,0.06172839506172839,0,0)" xlink:href="#K"/><use transform="matrix(0.06172839506172839,0,0,0.06172839506172839,15.987654320987653,0)" xlink:href="#N"/><use transform="matrix(0.06172839506172839,0,0,0.06172839506172839,33.2716049382716,0)" xlink:href="#O"/><use transform="matrix(0.06172839506172839,0,0,0.06172839506172839,49.25925925925925,0)" xlink:href="#I"/><use transform="matrix(0.06172839506172839,0,0,0.06172839506172839,62.77777777777777,0)" xlink:href="#H"/><use transform="matrix(0.06172839506172839,0,0,0.06172839506172839,78.76543209876543,0)" xlink:href="#G"/><use transform="matrix(0.06172839506172839,0,0,0.06172839506172839,91.91358024691357,0)" xlink:href="#I"/><use transform="matrix(0.06172839506172839,0,0,0.06172839506172839,104.99999999999999,0)" xlink:href="#N"/></g><path fill="#3a414a" d="M30-248c118-7 216 8 213 122C240-48 200 0 122 0H30v-248zM63-27c89 8 146-16 146-99s-60-101-146-95v194" id="P"/><path fill="#3a414a" d="M30 0v-248h187v28H63v79h144v27H63v87h162V0H30" id="Q"/><path fill="#3a414a" d="M30-248c87 1 191-15 191 75 0 78-77 80-158 76V0H30v-248zm33 125c57 0 124 11 124-50 0-59-68-47-124-48v98" id="R"/><path fill="#3a414a" d="M240 0l2-218c-23 76-54 145-80 218h-23L58-218 59 0H30v-248h44l77 211c21-75 51-140 76-211h43V0h-30" id="S"/><g id="c"><use transform="matrix(0.06172839506172839,0,0,0.06172839506172839,0,0)" xlink:href="#P"/><use transform="matrix(0.06172839506172839,0,0,0.06172839506172839,15.987654320987653,0)" xlink:href="#Q"/><use transform="matrix(0.06172839506172839,0,0,0.06172839506172839,30.80246913580247,0)" xlink:href="#R"/><use transform="matrix(0.06172839506172839,0,0,0.06172839506172839,43.95061728395061,0)" xlink:href="#G"/><use transform="matrix(0.06172839506172839,0,0,0.06172839506172839,58.76543209876543,0)" xlink:href="#H"/><use transform="matrix(0.06172839506172839,0,0,0.06172839506172839,74.32098765432099,0)" xlink:href="#I"/><use transform="matrix(0.06172839506172839,0,0,0.06172839506172839,86.17283950617283,0)" xlink:href="#G"/><use transform="matrix(0.06172839506172839,0,0,0.06172839506172839,100.98765432098764,0)" xlink:href="#S"/><use transform="matrix(0.06172839506172839,0,0,0.06172839506172839,119.44444444444443,0)" xlink:href="#Q"/><use transform="matrix(0.06172839506172839,0,0,0.06172839506172839,134.25925925925924,0)" xlink:href="#O"/><use transform="matrix(0.06172839506172839,0,0,0.06172839506172839,150.24691358024688,0)" xlink:href="#I"/><use transform="matrix(0.06172839506172839,0,0,0.06172839506172839,163.3333333333333,0)" xlink:href="#N"/></g><path fill="#3a414a" d="M160-131c35 5 61 23 61 61C221 17 115-2 30 0v-248c76 3 177-17 177 60 0 33-19 50-47 57zm-97-11c50-1 110 9 110-42 0-47-63-36-110-37v79zm0 115c55-2 124 14 124-45 0-56-70-42-124-44v89" id="T"/><path fill="#3a414a" d="M153-248C145-148 188 4 80 4 36 3 13-21 6-62l32-5c4 25 16 42 43 43 27 0 39-20 39-49v-147H72v-28h81" id="U"/><path fill="#3a414a" d="M137 0h-34L2-248h35l83 218 83-218h36" id="V"/><g id="d"><use transform="matrix(0.06172839506172839,0,0,0.06172839506172839,0,0)" xlink:href="#N"/><use transform="matrix(0.06172839506172839,0,0,0.06172839506172839,17.28395061728395,0)" xlink:href="#T"/><use transform="matrix(0.06172839506172839,0,0,0.06172839506172839,32.09876543209876,0)" xlink:href="#U"/><use transform="matrix(0.06172839506172839,0,0,0.06172839506172839,43.20987654320987,0)" xlink:href="#Q"/><use transform="matrix(0.06172839506172839,0,0,0.06172839506172839,58.02469135802468,0)" xlink:href="#I"/><use transform="matrix(0.06172839506172839,0,0,0.06172839506172839,71.5432098765432,0)" xlink:href="#J"/><use transform="matrix(0.06172839506172839,0,0,0.06172839506172839,77.71604938271604,0)" xlink:href="#V"/><use transform="matrix(0.06172839506172839,0,0,0.06172839506172839,92.53086419753085,0)" xlink:href="#N"/></g><path fill="#3a414a" d="M63-220v92h138v28H63V0H30v-248h175v28H63" id="W"/><g id="e"><use transform="matrix(0.06172839506172839,0,0,0.06172839506172839,0,0)" xlink:href="#W"/><use transform="matrix(0.06172839506172839,0,0,0.06172839506172839,12.28395061728395,0)" xlink:href="#G"/><use transform="matrix(0.06172839506172839,0,0,0.06172839506172839,27.098765432098762,0)" xlink:href="#M"/><use transform="matrix(0.06172839506172839,0,0,0.06172839506172839,37.77777777777777,0)" xlink:href="#I"/><use transform="matrix(0.06172839506172839,0,0,0.06172839506172839,49.629629629629626,0)" xlink:href="#G"/></g><g id="f"><use transform="matrix(0.06172839506172839,0,0,0.06172839506172839,0,0)" xlink:href="#W"/><use transform="matrix(0.06172839506172839,0,0,0.06172839506172839,12.28395061728395,0)" xlink:href="#G"/><use transform="matrix(0.06172839506172839,0,0,0.06172839506172839,27.098765432098762,0)" xlink:href="#K"/><use transform="matrix(0.06172839506172839,0,0,0.06172839506172839,43.08641975308642,0)" xlink:href="#I"/><use transform="matrix(0.06172839506172839,0,0,0.06172839506172839,56.60493827160494,0)" xlink:href="#L"/><use transform="matrix(0.06172839506172839,0,0,0.06172839506172839,72.5925925925926,0)" xlink:href="#H"/><use transform="matrix(0.06172839506172839,0,0,0.06172839506172839,88.58024691358025,0)" xlink:href="#G"/></g><path fill="#3a414a" d="M143 4C61 4 22-44 18-125c-5-107 100-154 193-111 17 8 29 25 37 43l-32 9c-13-25-37-40-76-40-61 0-88 39-88 99 0 61 29 100 91 101 35 0 62-11 79-27v-45h-74v-28h105v86C228-13 192 4 143 4" id="X"/><path fill="#3a414a" d="M185-189c-5-48-123-54-124 2 14 75 158 14 163 119 3 78-121 87-175 55-17-10-28-26-33-46l33-7c5 56 141 63 141-1 0-78-155-14-162-118-5-82 145-84 179-34 5 7 8 16 11 25" id="Y"/><path fill="#3a414a" d="M-5 72V49h209v23H-5" id="Z"/><g id="g"><use transform="matrix(0.06172839506172839,0,0,0.06172839506172839,0,0)" xlink:href="#X"/><use transform="matrix(0.06172839506172839,0,0,0.06172839506172839,17.28395061728395,0)" xlink:href="#G"/><use transform="matrix(0.06172839506172839,0,0,0.06172839506172839,32.09876543209876,0)" xlink:href="#Y"/><use transform="matrix(0.06172839506172839,0,0,0.06172839506172839,46.91358024691357,0)" xlink:href="#I"/><use transform="matrix(0.06172839506172839,0,0,0.06172839506172839,59.999999999999986,0)" xlink:href="#N"/><use transform="matrix(0.06172839506172839,0,0,0.06172839506172839,77.28395061728394,0)" xlink:href="#Y"/><use transform="matrix(0.06172839506172839,0,0,0.06172839506172839,92.09876543209874,0)" xlink:href="#Z"/><use transform="matrix(0.06172839506172839,0,0,0.06172839506172839,104.44444444444443,0)" xlink:href="#M"/><use transform="matrix(0.06172839506172839,0,0,0.06172839506172839,116.79012345679011,0)" xlink:href="#L"/><use transform="matrix(0.06172839506172839,0,0,0.06172839506172839,132.77777777777777,0)" xlink:href="#X"/><use transform="matrix(0.06172839506172839,0,0,0.06172839506172839,150.06172839506172,0)" xlink:href="#G"/><use transform="matrix(0.06172839506172839,0,0,0.06172839506172839,164.87654320987653,0)" xlink:href="#H"/></g><g id="h"><use transform="matrix(0.06172839506172839,0,0,0.06172839506172839,0,0)" xlink:href="#X"/><use transform="matrix(0.06172839506172839,0,0,0.06172839506172839,17.28395061728395,0)" xlink:href="#G"/><use transform="matrix(0.06172839506172839,0,0,0.06172839506172839,32.09876543209876,0)" xlink:href="#Y"/><use transform="matrix(0.06172839506172839,0,0,0.06172839506172839,46.91358024691357,0)" xlink:href="#I"/><use transform="matrix(0.06172839506172839,0,0,0.06172839506172839,59.999999999999986,0)" xlink:href="#N"/><use transform="matrix(0.06172839506172839,0,0,0.06172839506172839,77.28395061728394,0)" xlink:href="#Y"/><use transform="matrix(0.06172839506172839,0,0,0.06172839506172839,92.09876543209874,0)" xlink:href="#Z"/><use transform="matrix(0.06172839506172839,0,0,0.06172839506172839,104.44444444444443,0)" xlink:href="#Q"/><use transform="matrix(0.06172839506172839,0,0,0.06172839506172839,119.25925925925924,0)" xlink:href="#S"/><use transform="matrix(0.06172839506172839,0,0,0.06172839506172839,137.71604938271602,0)" xlink:href="#R"/><use transform="matrix(0.06172839506172839,0,0,0.06172839506172839,152.53086419753083,0)" xlink:href="#M"/><use transform="matrix(0.06172839506172839,0,0,0.06172839506172839,164.8765432098765,0)" xlink:href="#Q"/><use transform="matrix(0.06172839506172839,0,0,0.06172839506172839,179.6913580246913,0)" xlink:href="#G"/><use transform="matrix(0.06172839506172839,0,0,0.06172839506172839,194.50617283950612,0)" xlink:href="#P"/><use transform="matrix(0.06172839506172839,0,0,0.06172839506172839,210.49382716049377,0)" xlink:href="#N"/></g><g id="i"><use transform="matrix(0.06172839506172839,0,0,0.06172839506172839,0,0)" xlink:href="#V"/><use transform="matrix(0.06172839506172839,0,0,0.06172839506172839,14.814814814814813,0)" xlink:href="#Q"/><use transform="matrix(0.06172839506172839,0,0,0.06172839506172839,29.629629629629626,0)" xlink:href="#O"/><use transform="matrix(0.06172839506172839,0,0,0.06172839506172839,45.61728395061728,0)" xlink:href="#I"/><use transform="matrix(0.06172839506172839,0,0,0.06172839506172839,57.46913580246913,0)" xlink:href="#G"/></g><g id="j"><use transform="matrix(0.06172839506172839,0,0,0.06172839506172839,0,0)" xlink:href="#H"/><use transform="matrix(0.06172839506172839,0,0,0.06172839506172839,15.987654320987653,0)" xlink:href="#Q"/><use transform="matrix(0.06172839506172839,0,0,0.06172839506172839,30.80246913580247,0)" xlink:href="#G"/><use transform="matrix(0.06172839506172839,0,0,0.06172839506172839,45.61728395061728,0)" xlink:href="#T"/><use transform="matrix(0.06172839506172839,0,0,0.06172839506172839,60.43209876543209,0)" xlink:href="#G"/><use transform="matrix(0.06172839506172839,0,0,0.06172839506172839,75.2469135802469,0)" xlink:href="#Y"/><use transform="matrix(0.06172839506172839,0,0,0.06172839506172839,90.0617283950617,0)" xlink:href="#I"/><use transform="matrix(0.06172839506172839,0,0,0.06172839506172839,103.58024691358023,0)" xlink:href="#Q"/><use transform="matrix(0.06172839506172839,0,0,0.06172839506172839,118.39506172839504,0)" xlink:href="#K"/><use transform="matrix(0.06172839506172839,0,0,0.06172839506172839,134.38271604938268,0)" xlink:href="#J"/><use transform="matrix(0.06172839506172839,0,0,0.06172839506172839,140.55555555555551,0)" xlink:href="#S"/><use transform="matrix(0.06172839506172839,0,0,0.06172839506172839,159.0123456790123,0)" xlink:href="#J"/><use transform="matrix(0.06172839506172839,0,0,0.06172839506172839,165.18518518518513,0)" xlink:href="#Q"/><use transform="matrix(0.06172839506172839,0,0,0.06172839506172839,179.99999999999994,0)" xlink:href="#O"/><use transform="matrix(0.06172839506172839,0,0,0.06172839506172839,195.9876543209876,0)" xlink:href="#I"/><use transform="matrix(0.06172839506172839,0,0,0.06172839506172839,209.074074074074,0)" xlink:href="#N"/></g><g id="k"><use transform="matrix(0.06172839506172839,0,0,0.06172839506172839,0,0)" xlink:href="#R"/><use transform="matrix(0.06172839506172839,0,0,0.06172839506172839,14.814814814814813,0)" xlink:href="#Q"/><use transform="matrix(0.06172839506172839,0,0,0.06172839506172839,29.629629629629626,0)" xlink:href="#H"/><use transform="matrix(0.06172839506172839,0,0,0.06172839506172839,45.61728395061728,0)" xlink:href="#P"/><use transform="matrix(0.06172839506172839,0,0,0.06172839506172839,61.60493827160493,0)" xlink:href="#J"/><use transform="matrix(0.06172839506172839,0,0,0.06172839506172839,67.77777777777777,0)" xlink:href="#P"/><use transform="matrix(0.06172839506172839,0,0,0.06172839506172839,83.76543209876543,0)" xlink:href="#G"/></g><g id="l"><use transform="matrix(0.06172839506172839,0,0,0.06172839506172839,0,0)" xlink:href="#I"/><use transform="matrix(0.06172839506172839,0,0,0.06172839506172839,13.518518518518517,0)" xlink:href="#H"/><use transform="matrix(0.06172839506172839,0,0,0.06172839506172839,29.50617283950617,0)" xlink:href="#G"/><use transform="matrix(0.06172839506172839,0,0,0.06172839506172839,44.32098765432099,0)" xlink:href="#Y"/><use transform="matrix(0.06172839506172839,0,0,0.06172839506172839,59.1358024691358,0)" xlink:href="#M"/><use transform="matrix(0.06172839506172839,0,0,0.06172839506172839,71.48148148148148,0)" xlink:href="#G"/><use transform="matrix(0.06172839506172839,0,0,0.06172839506172839,86.29629629629629,0)" xlink:href="#P"/><use transform="matrix(0.06172839506172839,0,0,0.06172839506172839,102.28395061728395,0)" xlink:href="#N"/></g><linearGradient gradientUnits="userSpaceOnUse" id="m" x1="1521.22" y1="189.62" x2="1515.22" y2="183.62"><stop offset="0%" stop-color="#6f7681" stop-opacity=".25"/><stop offset="50%" stop-color="#6f7681" stop-opacity="0"/></linearGradient><linearGradient gradientUnits="userSpaceOnUse" id="n" x1="1521.22" y1="640.41" x2="1521.22" y2="183.62"><stop offset="0%" stop-color="#6f7681" stop-opacity="0"/><stop offset="98.69%" stop-color="#6f7681" stop-opacity=".25"/><stop offset="98.68%" stop-color="#6f7681" stop-opacity="0"/><stop offset="100%" stop-color="#6f7681" stop-opacity="0"/></linearGradient><linearGradient gradientUnits="userSpaceOnUse" id="o" x1="1841.22" y1="189.62" x2="1847.22" y2="183.62"><stop offset="0%" stop-color="#6f7681" stop-opacity=".25"/><stop offset="50%" stop-color="#6f7681" stop-opacity="0"/></linearGradient><linearGradient gradientUnits="userSpaceOnUse" id="p" x1="1515.22" y1="189.62" x2="1847.22" y2="189.62"><stop offset="0%" stop-color="#6f7681" stop-opacity="0"/><stop offset="98.19%" stop-color="#6f7681" stop-opacity=".25"/><stop offset="98.18%" stop-color="#6f7681" stop-opacity="0"/><stop offset="100%" stop-color="#6f7681" stop-opacity="0"/></linearGradient><linearGradient gradientUnits="userSpaceOnUse" id="q" x1="1841.22" y1="634.41" x2="1847.22" y2="640.41"><stop offset="0%" stop-color="#6f7681" stop-opacity=".25"/><stop offset="50%" stop-color="#6f7681" stop-opacity="0"/></linearGradient><linearGradient gradientUnits="userSpaceOnUse" id="r" x1="1521.22" y1="183.62" x2="1521.22" y2="640.41"><stop offset="0%" stop-color="#6f7681" stop-opacity="0"/><stop offset="98.69%" stop-color="#6f7681" stop-opacity=".25"/><stop offset="98.68%" stop-color="#6f7681" stop-opacity="0"/><stop offset="100%" stop-color="#6f7681" stop-opacity="0"/></linearGradient><linearGradient gradientUnits="userSpaceOnUse" id="s" x1="1521.22" y1="634.41" x2="1515.22" y2="640.41"><stop offset="0%" stop-color="#6f7681" stop-opacity=".25"/><stop offset="50%" stop-color="#6f7681" stop-opacity="0"/></linearGradient><linearGradient gradientUnits="userSpaceOnUse" id="t" x1="1847.22" y1="189.62" x2="1515.22" y2="189.62"><stop offset="0%" stop-color="#6f7681" stop-opacity="0"/><stop offset="98.19%" stop-color="#6f7681" stop-opacity=".25"/><stop offset="98.18%" stop-color="#6f7681" stop-opacity="0"/><stop offset="100%" stop-color="#6f7681" stop-opacity="0"/></linearGradient><linearGradient gradientUnits="userSpaceOnUse" id="u" x1="1084.64" y1="159.28" x2="1078.64" y2="153.28"><stop offset="0%" stop-color="#6f7681" stop-opacity=".25"/><stop offset="50%" stop-color="#6f7681" stop-opacity="0"/></linearGradient><linearGradient gradientUnits="userSpaceOnUse" id="v" x1="1084.64" y1="788.36" x2="1084.64" y2="153.28"><stop offset="0%" stop-color="#6f7681" stop-opacity="0"/><stop offset="99.06%" stop-color="#6f7681" stop-opacity=".25"/><stop offset="99.05%" stop-color="#6f7681" stop-opacity="0"/><stop offset="100%" stop-color="#6f7681" stop-opacity="0"/></linearGradient><linearGradient gradientUnits="userSpaceOnUse" id="w" x1="1296.18" y1="159.28" x2="1302.18" y2="153.28"><stop offset="0%" stop-color="#6f7681" stop-opacity=".25"/><stop offset="50%" stop-color="#6f7681" stop-opacity="0"/></linearGradient><linearGradient gradientUnits="userSpaceOnUse" id="x" x1="1078.64" y1="159.28" x2="1302.18" y2="159.28"><stop offset="0%" stop-color="#6f7681" stop-opacity="0"/><stop offset="97.32%" stop-color="#6f7681" stop-opacity=".25"/><stop offset="97.31%" stop-color="#6f7681" stop-opacity="0"/><stop offset="100%" stop-color="#6f7681" stop-opacity="0"/></linearGradient><linearGradient gradientUnits="userSpaceOnUse" id="y" x1="1296.18" y1="782.36" x2="1302.18" y2="788.36"><stop offset="0%" stop-color="#6f7681" stop-opacity=".25"/><stop offset="50%" stop-color="#6f7681" stop-opacity="0"/></linearGradient><linearGradient gradientUnits="userSpaceOnUse" id="z" x1="1084.64" y1="153.28" x2="1084.64" y2="788.36"><stop offset="0%" stop-color="#6f7681" stop-opacity="0"/><stop offset="99.06%" stop-color="#6f7681" stop-opacity=".25"/><stop offset="99.05%" stop-color="#6f7681" stop-opacity="0"/><stop offset="100%" stop-color="#6f7681" stop-opacity="0"/></linearGradient><linearGradient gradientUnits="userSpaceOnUse" id="A" x1="1084.64" y1="782.36" x2="1078.64" y2="788.36"><stop offset="0%" stop-color="#6f7681" stop-opacity=".25"/><stop offset="50%" stop-color="#6f7681" stop-opacity="0"/></linearGradient><linearGradient gradientUnits="userSpaceOnUse" id="B" x1="1302.18" y1="159.28" x2="1078.64" y2="159.28"><stop offset="0%" stop-color="#6f7681" stop-opacity="0"/><stop offset="97.32%" stop-color="#6f7681" stop-opacity=".25"/><stop offset="97.31%" stop-color="#6f7681" stop-opacity="0"/><stop offset="100%" stop-color="#6f7681" stop-opacity="0"/></linearGradient><g id="C"><use transform="matrix(0.06172839506172839,0,0,0.06172839506172839,0,0)" xlink:href="#M"/><use transform="matrix(0.06172839506172839,0,0,0.06172839506172839,12.345679012345679,0)" xlink:href="#L"/><use transform="matrix(0.06172839506172839,0,0,0.06172839506172839,28.333333333333332,0)" xlink:href="#X"/><use transform="matrix(0.06172839506172839,0,0,0.06172839506172839,45.61728395061728,0)" xlink:href="#G"/><use transform="matrix(0.06172839506172839,0,0,0.06172839506172839,60.43209876543209,0)" xlink:href="#H"/></g><g id="D"><use transform="matrix(0.06172839506172839,0,0,0.06172839506172839,0,0)" xlink:href="#K"/><use transform="matrix(0.06172839506172839,0,0,0.06172839506172839,15.987654320987653,0)" xlink:href="#M"/><use transform="matrix(0.06172839506172839,0,0,0.06172839506172839,28.333333333333332,0)" xlink:href="#J"/><use transform="matrix(0.06172839506172839,0,0,0.06172839506172839,34.50617283950617,0)" xlink:href="#Q"/><use transform="matrix(0.06172839506172839,0,0,0.06172839506172839,49.32098765432099,0)" xlink:href="#O"/><use transform="matrix(0.06172839506172839,0,0,0.06172839506172839,65.30864197530865,0)" xlink:href="#I"/><use transform="matrix(0.06172839506172839,0,0,0.06172839506172839,78.82716049382717,0)" xlink:href="#Q"/></g><g id="E"><use transform="matrix(0.06172839506172839,0,0,0.06172839506172839,0,0)" xlink:href="#R"/><use transform="matrix(0.06172839506172839,0,0,0.06172839506172839,14.814814814814813,0)" xlink:href="#H"/><use transform="matrix(0.06172839506172839,0,0,0.06172839506172839,30.80246913580247,0)" xlink:href="#N"/><use transform="matrix(0.06172839506172839,0,0,0.06172839506172839,48.08641975308642,0)" xlink:href="#V"/><use transform="matrix(0.06172839506172839,0,0,0.06172839506172839,62.90123456790123,0)" xlink:href="#Q"/><use transform="matrix(0.06172839506172839,0,0,0.06172839506172839,77.71604938271604,0)" xlink:href="#Q"/><use transform="matrix(0.06172839506172839,0,0,0.06172839506172839,92.53086419753085,0)" xlink:href="#P"/><use transform="matrix(0.06172839506172839,0,0,0.06172839506172839,108.5185185185185,0)" xlink:href="#N"/><use transform="matrix(0.06172839506172839,0,0,0.06172839506172839,125.80246913580245,0)" xlink:href="#H"/></g><g id="F"><use transform="matrix(0.06172839506172839,0,0,0.06172839506172839,0,0)" xlink:href="#Q"/><use transform="matrix(0.06172839506172839,0,0,0.06172839506172839,14.814814814814813,0)" xlink:href="#S"/><use transform="matrix(0.06172839506172839,0,0,0.06172839506172839,33.2716049382716,0)" xlink:href="#R"/><use transform="matrix(0.06172839506172839,0,0,0.06172839506172839,48.08641975308642,0)" xlink:href="#M"/><use transform="matrix(0.06172839506172839,0,0,0.06172839506172839,60.432098765432094,0)" xlink:href="#Q"/><use transform="matrix(0.06172839506172839,0,0,0.06172839506172839,75.24691358024691,0)" xlink:href="#G"/><use transform="matrix(0.06172839506172839,0,0,0.06172839506172839,90.06172839506172,0)" xlink:href="#P"/><use transform="matrix(0.06172839506172839,0,0,0.06172839506172839,106.04938271604938,0)" xlink:href="#N"/></g></defs></g></svg>